Coordinates
version=1
nRows=12
nColumns=28
inDegrees=yes

Units are S.I. units (second, meters, Newtons, ...)
Angles are in degrees.

endheader
time	pelvis_tilt	pelvis_list	pelvis_rotation	pelvis_tx	pelvis_ty	pelvis_tz	hip_flexion_r	hip_adduction_r	hip_rotation_r	knee_angle_r	ankle_angle_r	subtalar_angle_r	mtp_angle_r	hip_flexion_l	hip_adduction_l	hip_rotation_l	knee_angle_l	socket_flexion	socket_adduction	socket_rotation	socket_tx	socket_ty	socket_tz	foot_flex	lumbar_extension	lumbar_bending	lumbar_rotation
      0.00000000	     -1.49580497	     -1.67405336	     -0.67933908	     -0.80959115	      0.97121150	      0.29753934	    -21.79246106	      2.69344703	      5.94211738	     -5.45528533	     -4.59177929	    -22.40599522	     10.61453172	     21.40715403	     -2.29785802	      5.33641626	      1.53215997	      0.00000000	      0.00000000	      0.00000000	      0.00000000	      0.00000000	      0.00000000	     -0.99982443	     -7.25307402	     -0.06253228	      3.15075314
      0.00416667	     -1.49253061	     -1.58426350	     -0.75097203	     -0.80407474	      0.97014233	      0.29700486	    -21.98802894	      2.55464879	      5.96798690	     -5.67132384	     -4.69472529	    -22.41631409	     10.61505188	     21.40760448	     -2.21575950	      5.35243462	      1.10366869	      0.00000000	      0.00000000	      0.00000000	      0.00000000	      0.00000000	      0.00000000	     -1.36066864	     -7.21123695	     -0.19796084	      3.15765240
      0.00833333	     -1.34195237	     -1.28277861	     -0.86096494	     -0.79790905	      0.96927062	      0.29660640	    -22.39672310	      2.17428209	      5.78057862	     -5.82459839	     -5.08580841	    -22.61509817	     10.88771917	     21.10369792	     -1.93870637	      5.21156229	      0.85581004	      0.00000000	      0.00000000	      0.00000000	      0.00000000	      0.00000000	      0.00000000	     -1.87503265	     -7.27777901	     -0.63687461	      3.34515987
      0.01250000	     -1.34732896	     -1.20023926	     -0.92329872	     -0.79203278	      0.96817934	      0.29597673	    -22.56523551	      2.04656676	      5.82646032	     -6.10442090	     -5.17329516	    -22.61531047	     10.90947436	     21.12030721	     -1.85416047	      5.24701807	      0.38555900	      0.00000000	      0.00000000	      0.00000000	      0.00000000	      0.00000000	      0.00000000	     -2.32075331	     -7.22594909	     -0.76236420	      3.34824929
      0.01666667	     -1.36358718	     -1.06987816	     -0.97648613	     -0.78594093	      0.96707267	      0.29533516	    -22.69353004	      1.87467482	      5.81766504	     -6.45187236	     -5.30878293	    -22.63181031	     10.93559579	     21.13492261	     -1.71594213	      5.26098510	     -0.07619960	      0.00000000	      0.00000000	      0.00000000	      0.00000000	      0.00000000	      0.00000000	     -2.86586957	     -7.17026799	     -0.95920373	      3.36190739
      0.02083333	     -1.39060509	     -0.89904776	     -1.03529625	     -0.77964726	      0.96597378	      0.29469920	    -22.79243609	      1.65419440	      5.72180053	     -6.84678199	     -5.49478812	    -22.66585041	     10.97547932	     21.13266302	     -1.53843280	      5.23675738	     -0.51380237	      0.00000000	      0.00000000	      0.00000000	      0.00000000	      0.00000000	      0.00000000	     -3.43965268	     -7.07628310	     -1.21247519	      3.38906873
      0.02500000	     -1.41873659	     -0.71368167	     -1.08052028	     -0.77328181	      0.96491064	      0.29401599	    -22.88005401	      1.43054161	      5.63300489	     -7.24812306	     -5.70414336	    -22.68686457	     11.02255652	     21.14735455	     -1.33127195	      5.19513299	     -0.98867747	      0.00000000	      0.00000000	      0.00000000	      0.00000000	      0.00000000	      0.00000000	     -4.01530960	     -6.99303878	     -1.48090536	      3.41752208
      0.02916667	     -1.51510507	     -0.30457454	     -1.14953659	     -0.76623400	      0.96372696	      0.29345804	    -22.88369341	      0.93361469	      5.09290070	     -7.71130761	     -6.19839413	    -22.72469865	     11.47404886	     21.11114896	     -0.90959429	      4.96908649	     -1.32908257	      0.00000000	      0.00000000	      0.00000000	      0.00000000	      0.00000000	      0.00000000	     -4.60422450	     -6.71884589	     -2.05748625	      3.57993257
      0.03333333	     -1.48769766	      0.00573620	     -1.14851106	     -0.75958859	      0.96272958	      0.29263490	    -22.92908922	      0.52323381	      4.43081942	     -8.25101672	     -6.75286968	    -22.46455865	     15.75459296	     21.03767522	     -0.54659425	      4.87828219	     -1.78483653	      0.00000000	      0.00000000	      0.00000000	      0.00000000	      0.00000000	      0.00000000	     -5.19350179	     -6.68489046	     -2.47337300	      3.59374587
      0.03750000	     -1.49377918	      0.15253916	     -1.13312781	     -0.75322212	      0.96185626	      0.29176561	    -23.00717299	      0.36133405	      4.49561276	     -8.69000365	     -6.95128388	    -22.44939403	     15.74656984	     21.07815666	     -0.34243183	      4.87816663	     -2.35899601	      0.00000000	      0.00000000	      0.00000000	      0.00000000	      0.00000000	      0.00000000	     -5.71325777	     -6.66838502	     -2.69394982	      3.57794575
      0.04166667	     -1.51270373	      0.36083712	     -1.12550687	     -0.74677191	      0.96103766	      0.29091525	    -23.00055587	      0.12868658	      4.42744679	     -9.26166194	     -7.26904404	    -22.45581466	     15.73185865	     21.11100073	     -0.07700303	      4.83122399	     -2.91679920	      0.00000000	      0.00000000	      0.00000000	      0.00000000	      0.00000000	      0.00000000	     -6.26566348	     -6.61487933	     -2.99463366	      3.55241407
      0.04583333	     -1.67585989	      0.75559679	     -1.13687712	     -0.73979236	      0.96004775	      0.29017813	    -22.74674970	     -0.33926136	      3.82891263	    -10.00858646	     -7.94581632	    -22.51978377	     15.79215172	     21.19467558	      0.36805855	      4.61510745	     -3.35488358	      0.00000000	      0.00000000	      0.00000000	      0.00000000	      0.00000000	      0.00000000	     -6.77956683	     -6.31764314	     -3.52379487	      3.51783212
